<svg width="20" height="20" viewBox="0 0 20 20" fill="none" xmlns="http://www.w3.org/2000/svg">
<path d="M17.0892 3.75033V5.62533H3.75586C3.36922 5.62576 2.99853 5.77954 2.72514 6.05294C2.45174 6.32633 2.29796 6.69702 2.29753 7.08366V13.3337H2.08919C1.86838 13.333 1.65679 13.245 1.50065 13.0889C1.3445 12.9327 1.2565 12.7211 1.25586 12.5003V3.75033C1.2565 3.52951 1.3445 3.31792 1.50064 3.16177C1.65678 3.00563 1.86837 2.91763 2.08919 2.91699H16.2559C16.4767 2.91763 16.6883 3.00563 16.8444 3.16177C17.0006 3.31792 17.0886 3.52951 17.0892 3.75033Z" fill="#FEA303"/>
<path d="M15.9873 8.22949H5.69234C5.63861 8.41746 5.53788 8.58864 5.39967 8.72689C5.26145 8.86514 5.09029 8.96591 4.90234 9.01969V14.3143C5.0903 14.3681 5.26145 14.4688 5.39967 14.6071C5.53789 14.7453 5.63861 14.9165 5.69234 15.1045H15.9873C16.0411 14.9165 16.1418 14.7453 16.28 14.6071C16.4182 14.4688 16.5894 14.3681 16.7773 14.3143V9.01971C16.5894 8.96593 16.4182 8.86515 16.28 8.7269C16.1418 8.58864 16.0411 8.41746 15.9873 8.22949ZM7.29818 12.292C7.17456 12.292 7.05373 12.2553 6.95095 12.1867C6.84817 12.118 6.76806 12.0204 6.72075 11.9062C6.67345 11.792 6.66107 11.6663 6.68519 11.5451C6.7093 11.4238 6.76883 11.3125 6.85624 11.2251C6.94364 11.1376 7.05501 11.0781 7.17625 11.054C7.29748 11.0299 7.42315 11.0423 7.53735 11.0896C7.65156 11.1369 7.74917 11.217 7.81785 11.3198C7.88652 11.4225 7.92318 11.5434 7.92318 11.667C7.92318 11.8328 7.85733 11.9917 7.74012 12.1089C7.62291 12.2261 7.46394 12.292 7.29818 12.292ZM10.8398 13.6462C10.4484 13.6462 10.0658 13.5301 9.74028 13.3126C9.41481 13.0951 9.16113 12.786 9.01133 12.4244C8.86153 12.0627 8.82234 11.6648 8.89871 11.2809C8.97507 10.897 9.16357 10.5443 9.44036 10.2675C9.71715 9.99072 10.0698 9.80222 10.4537 9.72585C10.8376 9.64949 11.2356 9.68868 11.5972 9.83848C11.9589 9.98828 12.268 10.242 12.4855 10.5674C12.7029 10.8929 12.819 11.2755 12.819 11.667C12.8184 12.1917 12.6097 12.6948 12.2387 13.0658C11.8676 13.4369 11.3646 13.6456 10.8398 13.6462ZM14.3815 12.5003C14.2579 12.5003 14.1371 12.4637 14.0343 12.395C13.9315 12.3263 13.8514 12.2287 13.8041 12.1145C13.7568 12.0003 13.7444 11.8746 13.7685 11.7534C13.7926 11.6322 13.8522 11.5208 13.9396 11.4334C14.027 11.346 14.1383 11.2865 14.2596 11.2623C14.3808 11.2382 14.5065 11.2506 14.6207 11.2979C14.7349 11.3452 14.8325 11.4253 14.9012 11.5281C14.9699 11.6309 15.0065 11.7517 15.0065 11.8753C15.0065 12.0411 14.9407 12.2001 14.8235 12.3173C14.7062 12.4345 14.5473 12.5003 14.3815 12.5003Z" fill="#FEA303"/>
<path d="M10.8385 13.0208C11.5864 13.0208 12.1927 12.4146 12.1927 11.6667C12.1927 10.9188 11.5864 10.3125 10.8385 10.3125C10.0907 10.3125 9.48438 10.9188 9.48438 11.6667C9.48438 12.4146 10.0907 13.0208 10.8385 13.0208Z" fill="#FEA303"/>
<path d="M17.9219 6.25H3.75521C3.53427 6.25025 3.32246 6.33813 3.16623 6.49436C3.01001 6.65058 2.92213 6.8624 2.92188 7.08333V16.25C2.92213 16.4709 3.01001 16.6828 3.16623 16.839C3.32246 16.9952 3.53427 17.0831 3.75521 17.0833H17.9219C18.1428 17.0831 18.3546 16.9952 18.5109 16.839C18.6671 16.6828 18.755 16.4709 18.7552 16.25V7.08333C18.755 6.8624 18.6671 6.65058 18.5109 6.49436C18.3546 6.33813 18.1428 6.25025 17.9219 6.25ZM17.401 14.5833C17.401 14.6662 17.3681 14.7457 17.3095 14.8043C17.2509 14.8629 17.1714 14.8958 17.0885 14.8958C16.9504 14.896 16.818 14.9509 16.7204 15.0485C16.6228 15.1462 16.5678 15.2786 16.5677 15.4167C16.5677 15.4995 16.5348 15.579 16.4762 15.6376C16.4176 15.6962 16.3381 15.7291 16.2552 15.7292H5.42188C5.339 15.7291 5.25953 15.6962 5.20093 15.6376C5.14233 15.579 5.1094 15.4995 5.10938 15.4167C5.10925 15.2786 5.05433 15.1462 4.95668 15.0485C4.85904 14.9509 4.72664 14.896 4.58854 14.8958C4.50567 14.8958 4.4262 14.8629 4.3676 14.8043C4.30899 14.7457 4.27606 14.6662 4.27604 14.5833V8.75C4.27606 8.66713 4.30899 8.58765 4.3676 8.52905C4.4262 8.47045 4.50567 8.43752 4.58854 8.4375C4.72664 8.43737 4.85904 8.38246 4.95668 8.28481C5.05433 8.18716 5.10925 8.05476 5.10938 7.91667C5.1094 7.83379 5.14233 7.75432 5.20093 7.69572C5.25953 7.63712 5.339 7.60419 5.42188 7.60417H16.2552C16.3381 7.60419 16.4176 7.63712 16.4762 7.69572C16.5348 7.75432 16.5677 7.83379 16.5677 7.91667C16.5678 8.05476 16.6228 8.18716 16.7204 8.28481C16.818 8.38246 16.9504 8.43737 17.0885 8.4375C17.1714 8.43752 17.2509 8.47045 17.3095 8.52905C17.3681 8.58765 17.401 8.66713 17.401 8.75V14.5833Z" fill="#FEA303"/>
</svg>
